<!DOCTYPE svg PUBLIC "-//W3C//DTD SVG 1.1//EN" "http://www.w3.org/Graphics/SVG/1.1/DTD/svg11.dtd">
<!-- Uploaded to: SVG Repo, www.svgrepo.com, Transformed by: SVG Repo Mixer Tools -->
<svg fill="#ffffff" width="64px" height="64px" viewBox="0 0 22 22" xmlns="http://www.w3.org/2000/svg" id="memory-volume-mute" stroke="#ffffff">
<g id="SVGRepo_bgCarrier" stroke-width="0"/>
<g id="SVGRepo_tracerCarrier" stroke-linecap="round" stroke-linejoin="round"/>
<g id="SVGRepo_iconCarrier">
<path d="M12 7H14V8H15V9H17V8H18V7H20V9H19V10H18V12H19V13H20V15H18V14H17V13H15V14H14V15H12V13H13V12H14V10H13V9H12V7M6 8V7H7V6H8V5H9V4H10V3H11V19H10V18H9V17H8V16H7V15H6V14H2V8H6M7 10H4V12H7V13H8V14H9V8H8V9H7V10Z"/>
</g>
</svg>